/* XPM */
static char *xpm_chan_alpha_xpm[] = {
"20 20 8 1",
" 	c None",
"1	c #C8C8FF",
"2	c #7878FF",
"3	c #0000FF",
"4	c #000000",
"5	c #FF9EFF",
"6	c #929292",
"7	c #FFFFC8",
"        4444        ",
"       477774       ",
"      44777744      ",
"      44777744      ",
"      44777744      ",
"       444774       ",
"        4744        ",
"      44344344      ",
"   44433333222666   ",
"  4433333322222166  ",
" 4433333332221 1166 ",
"44333333222211 1 1 6",
"4333444222221 1   1 ",
"33344 4222211   1   ",
"3344  42221111    11",
"344   42211         ",
"44    4221 1        ",
"4     4411          ",
"       11 1 1       ",
"       11 1         "
};
