/* XPM */
static char *xpm_chan_sel_xpm[] = {
"20 20 8 1",
" 	c None",
"1	c #C8C8FF",
"2	c #7878FF",
"3	c #0000FF",
"4	c #000000",
"5	c #FF9EFF",
"6	c #929292",
"7	c #FFFFC8",
"        4444        ",
"       4    4       ",
"      44    44      ",
"      44    44      ",
"      44    44      ",
"       444  4       ",
"        4 44        ",
"      44 44 44      ",
"   444        444   ",
"  44            44  ",
" 44              44 ",
"44                44",
"4   444      444   4",
"   44 4      4 44   ",
"  44  4      4  44  ",
" 44   4      4   44 ",
"44    4      4    44",
"4     44    44     4",
"       4    4       ",
"       4    4       "
};
