/* XPM */
static char *xpm_chan_mask_xpm[] = {
"20 20 8 1",
" 	c None",
"1	c #C8C8FF",
"2	c #7878FF",
"3	c #0000FF",
"4	c #000000",
"5	c #FF9EFF",
"6	c #929292",
"7	c #FFFFC8",
"        7777        ",
"       777777       ",
"      77777777      ",
"      77777777      ",
"      77777777      ",
"       777777       ",
"        7777        ",
"      77777777      ",
"    777777777777    ",
"   77777777777777   ",
"  7777777777777777  ",
" 777777777777777777 ",
"77777777777777777777",
"7777  77777777  7777",
"777   77777777   777",
"77    77777777    77",
"7     77777777     7",
"      77777777      ",
"       777777       ",
"       777777       "
};
