/* XPM */
static char *xpm_chan_image_xpm[] = {
"20 20 8 1",
" 	c None",
"1	c #C8C8FF",
"2	c #7878FF",
"3	c #0000FF",
"4	c #000000",
"5	c #FF9EFF",
"6	c #929292",
"7	c #FFFFC8",
"        4444        ",
"       477774       ",
"      44777744      ",
"      44777744      ",
"      44777744      ",
"       444774       ",
"        4744        ",
"      44144144      ",
"   44411111111444   ",
"  4411111111111144  ",
" 441111111111111144 ",
"44111111111111111144",
"41114441111114441114",
"11144 41111114 44111",
"1144  41111114  4411",
"144   41111114   441",
"44    41111114    44",
"4     44111144     4",
"       411114       ",
"       411114       "
};
